<?xml version="1.0" encoding="UTF-8" standalone="no"?>
<!DOCTYPE svg PUBLIC "-//W3C//DTD SVG 1.1//EN"
 "http://www.w3.org/Graphics/SVG/1.1/DTD/svg11.dtd">
<!-- Generated by graphviz version 4.0.0 (0)
 -->
<!-- Title: Pyxem Family Tree Pages: 1 -->
<svg width="542pt" height="260pt"
 viewBox="0.00 0.00 542.25 260.00" xmlns="http://www.w3.org/2000/svg" xmlns:xlink="http://www.w3.org/1999/xlink">
<g id="graph0" class="graph" transform="scale(1 1) rotate(0) translate(4 256)">
<title>Pyxem Family Tree</title>
<polygon fill="white" stroke="transparent" points="-4,4 -4,-256 538.25,-256 538.25,4 -4,4"/>
<!-- A -->
<g id="node1" class="node">
<title>A</title>
<polygon fill="none" stroke="black" points="225.75,-252 170.75,-252 170.75,-216 225.75,-216 225.75,-252"/>
<text text-anchor="middle" x="198.25" y="-230.3" font-family="Times,serif" font-size="14.00">numpy</text>
</g>
<!-- D -->
<g id="node4" class="node">
<title>D</title>
<ellipse fill="none" stroke="black" cx="42.25" cy="-90" rx="42.49" ry="18"/>
<text text-anchor="middle" x="42.25" y="-86.3" font-family="Times,serif" font-size="14.00">Diffsims</text>
</g>
<!-- A&#45;&gt;D -->
<g id="edge4" class="edge">
<title>A&#45;&gt;D</title>
<path fill="none" stroke="black" d="M170.58,-224.76C146.91,-216.57 113.12,-202.01 90.25,-180 72.15,-162.59 59.29,-136.84 51.46,-117.51"/>
<polygon fill="black" stroke="black" points="54.69,-116.15 47.83,-108.07 48.15,-118.66 54.69,-116.15"/>
</g>
<!-- E -->
<g id="node5" class="node">
<title>E</title>
<ellipse fill="none" stroke="black" cx="129.25" cy="-90" rx="27" ry="18"/>
<text text-anchor="middle" x="129.25" y="-86.3" font-family="Times,serif" font-size="14.00">Orix</text>
</g>
<!-- A&#45;&gt;E -->
<g id="edge7" class="edge">
<title>A&#45;&gt;E</title>
<path fill="none" stroke="black" d="M170.32,-226.37C147.03,-219.2 115.3,-205.25 100.25,-180 88.09,-159.61 99.25,-133.5 111.08,-114.85"/>
<polygon fill="black" stroke="black" points="114.13,-116.59 116.84,-106.35 108.33,-112.67 114.13,-116.59"/>
</g>
<!-- F -->
<g id="node6" class="node">
<title>F</title>
<polygon fill="none" stroke="black" points="191.75,-180 108.75,-180 108.75,-144 191.75,-144 191.75,-180"/>
<text text-anchor="middle" x="150.25" y="-158.3" font-family="Times,serif" font-size="14.00">Rosettasciio</text>
</g>
<!-- A&#45;&gt;F -->
<g id="edge1" class="edge">
<title>A&#45;&gt;F</title>
<path fill="none" stroke="black" d="M186.38,-215.7C180.74,-207.47 173.89,-197.48 167.68,-188.42"/>
<polygon fill="black" stroke="black" points="170.52,-186.37 161.97,-180.1 164.74,-190.33 170.52,-186.37"/>
</g>
<!-- G -->
<g id="node7" class="node">
<title>G</title>
<polygon fill="none" stroke="black" points="284.25,-180 210.25,-180 210.25,-144 284.25,-144 284.25,-180"/>
<text text-anchor="middle" x="247.25" y="-158.3" font-family="Times,serif" font-size="14.00">Matplotlib</text>
</g>
<!-- A&#45;&gt;G -->
<g id="edge8" class="edge">
<title>A&#45;&gt;G</title>
<path fill="none" stroke="black" d="M210.36,-215.7C216.11,-207.47 223.11,-197.48 229.45,-188.42"/>
<polygon fill="black" stroke="black" points="232.41,-190.3 235.27,-180.1 226.67,-186.29 232.41,-190.3"/>
</g>
<!-- H -->
<g id="node8" class="node">
<title>H</title>
<polygon fill="none" stroke="black" points="356.25,-180 302.25,-180 302.25,-144 356.25,-144 356.25,-180"/>
<text text-anchor="middle" x="329.25" y="-158.3" font-family="Times,serif" font-size="14.00">Dask</text>
</g>
<!-- A&#45;&gt;H -->
<g id="edge10" class="edge">
<title>A&#45;&gt;H</title>
<path fill="none" stroke="black" d="M226.03,-218.15C245.52,-207.74 271.78,-193.71 292.94,-182.4"/>
<polygon fill="black" stroke="black" points="294.78,-185.38 301.95,-177.58 291.48,-179.21 294.78,-185.38"/>
</g>
<!-- I -->
<g id="node9" class="node">
<title>I</title>
<polygon fill="none" stroke="black" points="534.25,-180 374.25,-180 374.25,-144 534.25,-144 534.25,-180"/>
<text text-anchor="middle" x="454.25" y="-158.3" font-family="Times,serif" font-size="14.00">Scientific Stack (Scipy ...)</text>
</g>
<!-- A&#45;&gt;I -->
<g id="edge12" class="edge">
<title>A&#45;&gt;I</title>
<path fill="none" stroke="black" d="M226.13,-225.38C263.26,-215.22 330.28,-196.9 382.1,-182.73"/>
<polygon fill="black" stroke="black" points="383.19,-186.06 391.92,-180.04 381.35,-179.3 383.19,-186.06"/>
</g>
<!-- B -->
<g id="node2" class="node">
<title>B</title>
<ellipse fill="none" stroke="black" cx="247.25" cy="-90" rx="44.69" ry="18"/>
<text text-anchor="middle" x="247.25" y="-86.3" font-family="Times,serif" font-size="14.00">Hyperspy</text>
</g>
<!-- C -->
<g id="node3" class="node">
<title>C</title>
<ellipse fill="none" stroke="black" cx="129.25" cy="-18" rx="35.19" ry="18"/>
<text text-anchor="middle" x="129.25" y="-14.3" font-family="Times,serif" font-size="14.00">pyxem</text>
</g>
<!-- B&#45;&gt;C -->
<g id="edge2" class="edge">
<title>B&#45;&gt;C</title>
<path fill="none" stroke="black" d="M223.08,-74.67C204.84,-63.84 179.67,-48.91 160,-37.24"/>
<polygon fill="black" stroke="black" points="161.77,-34.22 151.38,-32.13 158.2,-40.25 161.77,-34.22"/>
</g>
<!-- D&#45;&gt;C -->
<g id="edge3" class="edge">
<title>D&#45;&gt;C</title>
<path fill="none" stroke="black" d="M61.12,-73.81C73.37,-63.95 89.51,-50.97 103,-40.12"/>
<polygon fill="black" stroke="black" points="105.4,-42.68 111,-33.68 101.02,-37.22 105.4,-42.68"/>
</g>
<!-- E&#45;&gt;C -->
<g id="edge5" class="edge">
<title>E&#45;&gt;C</title>
<path fill="none" stroke="black" d="M129.25,-71.7C129.25,-63.98 129.25,-54.71 129.25,-46.11"/>
<polygon fill="black" stroke="black" points="132.75,-46.1 129.25,-36.1 125.75,-46.1 132.75,-46.1"/>
</g>
<!-- F&#45;&gt;B -->
<g id="edge6" class="edge">
<title>F&#45;&gt;B</title>
<path fill="none" stroke="black" d="M174.22,-143.7C187.51,-134.11 204.13,-122.11 218.16,-111.99"/>
<polygon fill="black" stroke="black" points="220.44,-114.66 226.5,-105.97 216.35,-108.98 220.44,-114.66"/>
</g>
<!-- G&#45;&gt;B -->
<g id="edge9" class="edge">
<title>G&#45;&gt;B</title>
<path fill="none" stroke="black" d="M247.25,-143.7C247.25,-135.98 247.25,-126.71 247.25,-118.11"/>
<polygon fill="black" stroke="black" points="250.75,-118.1 247.25,-108.1 243.75,-118.1 250.75,-118.1"/>
</g>
<!-- H&#45;&gt;B -->
<g id="edge11" class="edge">
<title>H&#45;&gt;B</title>
<path fill="none" stroke="black" d="M308.98,-143.7C298.19,-134.49 284.8,-123.06 273.25,-113.2"/>
<polygon fill="black" stroke="black" points="275.48,-110.5 265.6,-106.67 270.94,-115.83 275.48,-110.5"/>
</g>
<!-- I&#45;&gt;B -->
<g id="edge13" class="edge">
<title>I&#45;&gt;B</title>
<path fill="none" stroke="black" d="M403.87,-143.97C369.06,-132.19 323.24,-116.7 290.17,-105.51"/>
<polygon fill="black" stroke="black" points="290.93,-102.08 280.34,-102.19 288.69,-108.71 290.93,-102.08"/>
</g>
</g>
</svg>
